<mxfile host="app.diagrams.net" agent="Mozilla/5.0 (Windows NT 10.0; Win64; x64) AppleWebKit/537.36 (KHTML, like Gecko) Chrome/133.0.0.0 Safari/537.36" version="24.8.3">
  <diagram name="Trang-1" id="rk-QQRT-HMSAArYpVIcE">
    <mxGraphModel dx="797" dy="390" grid="1" gridSize="10" guides="1" tooltips="1" connect="1" arrows="1" fold="1" page="1" pageScale="1" pageWidth="827" pageHeight="1169" math="0" shadow="0">
      <root>
        <mxCell id="0" />
        <mxCell id="1" parent="0" />
        <mxCell id="XPUT2RDyiQbo73XkBa6--1" value="Arduino UNO" style="rounded=1;whiteSpace=wrap;html=1;" vertex="1" parent="1">
          <mxGeometry x="354" y="310" width="120" height="60" as="geometry" />
        </mxCell>
        <mxCell id="XPUT2RDyiQbo73XkBa6--20" value="" style="edgeStyle=orthogonalEdgeStyle;rounded=0;orthogonalLoop=1;jettySize=auto;html=1;" edge="1" parent="1" source="XPUT2RDyiQbo73XkBa6--2" target="XPUT2RDyiQbo73XkBa6--1">
          <mxGeometry relative="1" as="geometry" />
        </mxCell>
        <mxCell id="XPUT2RDyiQbo73XkBa6--2" value="Number Keypad 4x4" style="rounded=1;whiteSpace=wrap;html=1;" vertex="1" parent="1">
          <mxGeometry x="150" y="310" width="120" height="60" as="geometry" />
        </mxCell>
        <mxCell id="XPUT2RDyiQbo73XkBa6--5" value="LCD Display 16x2" style="rounded=1;whiteSpace=wrap;html=1;" vertex="1" parent="1">
          <mxGeometry x="354" y="460" width="120" height="60" as="geometry" />
        </mxCell>
        <mxCell id="XPUT2RDyiQbo73XkBa6--21" value="" style="edgeStyle=orthogonalEdgeStyle;rounded=0;orthogonalLoop=1;jettySize=auto;html=1;" edge="1" parent="1" source="XPUT2RDyiQbo73XkBa6--6" target="XPUT2RDyiQbo73XkBa6--1">
          <mxGeometry relative="1" as="geometry" />
        </mxCell>
        <mxCell id="XPUT2RDyiQbo73XkBa6--6" value="Fingerprint sensor" style="rounded=1;whiteSpace=wrap;html=1;" vertex="1" parent="1">
          <mxGeometry x="354" y="210" width="120" height="60" as="geometry" />
        </mxCell>
        <mxCell id="XPUT2RDyiQbo73XkBa6--7" value="Servo" style="rounded=1;whiteSpace=wrap;html=1;" vertex="1" parent="1">
          <mxGeometry x="520" y="220" width="120" height="60" as="geometry" />
        </mxCell>
        <mxCell id="XPUT2RDyiQbo73XkBa6--10" value="I2C" style="rounded=1;whiteSpace=wrap;html=1;" vertex="1" parent="1">
          <mxGeometry x="379" y="400" width="70" height="20" as="geometry" />
        </mxCell>
        <mxCell id="XPUT2RDyiQbo73XkBa6--13" value="" style="endArrow=classic;html=1;rounded=0;exitX=0.5;exitY=1;exitDx=0;exitDy=0;" edge="1" parent="1" source="XPUT2RDyiQbo73XkBa6--10" target="XPUT2RDyiQbo73XkBa6--5">
          <mxGeometry width="50" height="50" relative="1" as="geometry">
            <mxPoint x="325" y="490" as="sourcePoint" />
            <mxPoint x="360" y="460" as="targetPoint" />
          </mxGeometry>
        </mxCell>
        <mxCell id="XPUT2RDyiQbo73XkBa6--14" value="" style="endArrow=classic;html=1;rounded=0;exitX=0.5;exitY=1;exitDx=0;exitDy=0;" edge="1" parent="1" source="XPUT2RDyiQbo73XkBa6--1" target="XPUT2RDyiQbo73XkBa6--10">
          <mxGeometry width="50" height="50" relative="1" as="geometry">
            <mxPoint x="400" y="410" as="sourcePoint" />
            <mxPoint x="450" y="360" as="targetPoint" />
          </mxGeometry>
        </mxCell>
        <mxCell id="XPUT2RDyiQbo73XkBa6--15" value="" style="group" vertex="1" connectable="0" parent="1">
          <mxGeometry x="570" y="290" width="130" height="80" as="geometry" />
        </mxCell>
        <mxCell id="XPUT2RDyiQbo73XkBa6--3" value="ESP Wifi 8266" style="rounded=1;whiteSpace=wrap;html=1;" vertex="1" parent="XPUT2RDyiQbo73XkBa6--15">
          <mxGeometry y="20" width="120" height="60" as="geometry" />
        </mxCell>
        <mxCell id="XPUT2RDyiQbo73XkBa6--4" value="Internet" style="ellipse;shape=cloud;whiteSpace=wrap;html=1;" vertex="1" parent="XPUT2RDyiQbo73XkBa6--15">
          <mxGeometry x="80" width="50" height="40" as="geometry" />
        </mxCell>
        <mxCell id="XPUT2RDyiQbo73XkBa6--16" value="" style="endArrow=classic;html=1;rounded=0;exitX=1;exitY=0.5;exitDx=0;exitDy=0;entryX=0;entryY=0.5;entryDx=0;entryDy=0;" edge="1" parent="1" source="XPUT2RDyiQbo73XkBa6--1" target="XPUT2RDyiQbo73XkBa6--3">
          <mxGeometry width="50" height="50" relative="1" as="geometry">
            <mxPoint x="500" y="400" as="sourcePoint" />
            <mxPoint x="550" y="350" as="targetPoint" />
          </mxGeometry>
        </mxCell>
        <mxCell id="XPUT2RDyiQbo73XkBa6--22" value="" style="endArrow=classic;html=1;rounded=0;exitX=1;exitY=0;exitDx=0;exitDy=0;entryX=0;entryY=1;entryDx=0;entryDy=0;" edge="1" parent="1" source="XPUT2RDyiQbo73XkBa6--1" target="XPUT2RDyiQbo73XkBa6--7">
          <mxGeometry width="50" height="50" relative="1" as="geometry">
            <mxPoint x="400" y="410" as="sourcePoint" />
            <mxPoint x="580" y="300" as="targetPoint" />
            <Array as="points" />
          </mxGeometry>
        </mxCell>
      </root>
    </mxGraphModel>
  </diagram>
</mxfile>
